<svg xmlns="http://www.w3.org/2000/svg" viewBox="0 0 512 512">
  <defs>
    <linearGradient id="bg" x1="0%" y1="0%" x2="100%" y2="100%">
      <stop offset="0%" style="stop-color:#1e3a8a"/>
      <stop offset="100%" style="stop-color:#2563eb"/>
    </linearGradient>
  </defs>
  
  <!-- Background -->
  <rect width="512" height="512" rx="100" fill="url(#bg)"/>
  
  <!-- Receipt/Parchi Icon -->
  <g fill="white">
    <!-- Paper -->
    <path d="M140 80 h232 c11 0 20 9 20 20 v292 c0 11-9 20-20 20 h-40 l-40 40 -40-40 h-112 c-11 0-20-9-20-20 v-292 c0-11 9-20 20-20z" opacity="0.95"/>
    
    <!-- Lines on paper -->
    <rect x="180" y="140" width="152" height="12" rx="6" fill="#1e3a8a" opacity="0.3"/>
    <rect x="180" y="180" width="120" height="12" rx="6" fill="#1e3a8a" opacity="0.3"/>
    <rect x="180" y="220" width="140" height="12" rx="6" fill="#1e3a8a" opacity="0.3"/>
    <rect x="180" y="260" width="100" height="12" rx="6" fill="#1e3a8a" opacity="0.3"/>
    
    <!-- Rupee Symbol -->
    <text x="256" y="350" text-anchor="middle" font-family="Arial, sans-serif" font-size="80" font-weight="bold" fill="#1e3a8a">₹</text>
  </g>
</svg>
